<svg xmlns="http://www.w3.org/2000/svg" xmlns:xlink="http://www.w3.org/1999/xlink" viewBox="0 0 40.71 52.61"><defs><style>.cls-1,.cls-10,.cls-4,.cls-5,.cls-6,.cls-7,.cls-8,.cls-9{fill:none;stroke-miterlimit:10;}.cls-1{stroke:url(#linear-gradient);}.cls-2{fill:url(#linear-gradient-2);}.cls-3{fill:url(#linear-gradient-3);}.cls-10,.cls-4,.cls-5,.cls-6,.cls-7,.cls-8{stroke-width:0.5px;}.cls-4{stroke:url(#linear-gradient-4);}.cls-5{stroke:url(#linear-gradient-5);}.cls-6{stroke:url(#linear-gradient-6);}.cls-7{stroke:url(#linear-gradient-7);}.cls-8{stroke:url(#linear-gradient-8);}.cls-9{stroke-width:0.75px;stroke:url(#linear-gradient-9);}.cls-10{stroke:url(#linear-gradient-10);}</style><linearGradient id="linear-gradient" x1="12.71" y1="27.82" x2="35.1" y2="27.82" gradientUnits="userSpaceOnUse"><stop offset="0" stop-color="#60c6ef"/><stop offset="0.12" stop-color="#48c1ed"/><stop offset="0.25" stop-color="#009fe3"/><stop offset="0.61" stop-color="#23398a"/><stop offset="1" stop-color="#2d2e83"/></linearGradient><linearGradient id="linear-gradient-2" x1="18.39" y1="27.82" x2="30.55" y2="27.82" xlink:href="#linear-gradient"/><linearGradient id="linear-gradient-3" x1="2.88" y1="27.78" x2="40.68" y2="27.78" xlink:href="#linear-gradient"/><linearGradient id="linear-gradient-4" x1="1.05" y1="4.26" x2="6.23" y2="4.26" xlink:href="#linear-gradient"/><linearGradient id="linear-gradient-5" x1="1.05" y1="9.54" x2="4.14" y2="9.54" xlink:href="#linear-gradient"/><linearGradient id="linear-gradient-6" x1="-2.01" y1="4.26" x2="0.49" y2="4.26" gradientTransform="translate(4.54 -2.49) rotate(-11.15)" xlink:href="#linear-gradient"/><linearGradient id="linear-gradient-7" x1="47.12" y1="23.84" x2="49.62" y2="23.84" gradientTransform="translate(-14.67 -1.18) rotate(44.77)" xlink:href="#linear-gradient"/><linearGradient id="linear-gradient-8" x1="-2.32" y1="63.64" x2="0.18" y2="63.64" gradientTransform="matrix(-0.8, 0.6, 0.6, 0.8, -1.11, 0.1)" xlink:href="#linear-gradient"/><linearGradient id="linear-gradient-9" x1="-7.29" y1="73.05" x2="-4.58" y2="73.05" gradientTransform="matrix(-1.1, 0.5, 1.06, 0.96, -46.32, -15.87)" xlink:href="#linear-gradient"/><linearGradient id="linear-gradient-10" x1="0" y1="46.72" x2="4.03" y2="46.72" xlink:href="#linear-gradient"/></defs><g id="Layer_2" data-name="Layer 2"><g id="Layer_1-2" data-name="Layer 1"><circle class="cls-1" cx="23.91" cy="27.82" r="10.69"/><path class="cls-2" d="M18.39,31.17a7.29,7.29,0,0,1,1.19-3.23,14.67,14.67,0,0,1,6.28-5.73,4.24,4.24,0,0,1,2.64-.47,3.25,3.25,0,0,1,2.05,2.16c.07.89-.57,1.4-1.2,1.86s-1.23,1-2.06.57a3.19,3.19,0,0,1-.8-.62.52.52,0,0,0-.75-.09,11.92,11.92,0,0,0-3.44,3.49.51.51,0,0,0,.09.75c1,.92.9,1.7.16,2.75-1.2,1.71-2.13,1.77-3.57.26A2.23,2.23,0,0,1,18.39,31.17Zm.75,0a2.34,2.34,0,0,0,1.3,1.92c.7.19,1-.33,1.38-.77.07-.09.13-.19.19-.28.42-.68.42-1.07-.15-1.62a1.23,1.23,0,0,1-.19-1.74A12.13,12.13,0,0,1,25.26,25c.76-.51,1.13-.43,1.8.19.34.31.73.56,1.17.31a6.52,6.52,0,0,0,1.3-1,.73.73,0,0,0,0-1c-.89-1.05-1.09-1.28-2.4-1a5.67,5.67,0,0,0-1.07.38A14,14,0,0,0,20.43,28,7.43,7.43,0,0,0,19.14,31.17Z"/><path class="cls-3" d="M5.44,37.5H4.68A1.74,1.74,0,0,1,4.55,34c.3,0,.6,0,.92,0V29.52c-.25,0-.5,0-.76,0a1.74,1.74,0,1,1,0-3.48H5.5V21.5H4.57a1.71,1.71,0,0,1,0-3.42c.3,0,.61,0,.92,0,0-2.58.06-5.11,0-7.63A2.91,2.91,0,0,1,8.37,7.49c3.43,0,6.86,0,10.28,0h19a2.77,2.77,0,0,1,2.89,2.09,2.57,2.57,0,0,1,.1.78q0,17.39,0,34.76a2.84,2.84,0,0,1-3,2.93H8.48a2.83,2.83,0,0,1-3-3C5.43,42.56,5.44,40.06,5.44,37.5Zm.75,0v1.3c0,2.07,0,4.13,0,6.19A2.12,2.12,0,0,0,8.54,47.3H37.62A2.08,2.08,0,0,0,39.92,45V10.53a2,2,0,0,0-2.24-2.26c-9.72,0-19.43,0-29.14,0a2.19,2.19,0,0,0-2.33,2.31c.08,2.47,0,4.95,0,7.5h.55c.73,0,1.47,0,2.21,0a1.62,1.62,0,0,1,1.6,1.59A1.68,1.68,0,0,1,8.86,21.5c-.9,0-1.8,0-2.69,0V26c.92,0,1.84,0,2.77,0a1.66,1.66,0,0,1,1.64,1.62,1.71,1.71,0,0,1-1.83,1.85c-.86,0-1.73,0-2.59,0V34c.85,0,1.7,0,2.54,0a1.73,1.73,0,0,1,1.89,1.75A1.7,1.7,0,0,1,8.7,37.5Zm.57-16.76h0c.68,0,1.36,0,2,0a1,1,0,1,0,0-1.92c-1.36,0-2.72,0-4.08,0a1,1,0,1,0,0,1.93C5.4,20.75,6.08,20.74,6.76,20.74Zm0,8h2a1,1,0,0,0,1.08-1c0-.6-.38-1-1.08-1h-4c-.68,0-1.11.38-1.13.94a1,1,0,0,0,1.13,1C5.43,28.78,6.1,28.77,6.76,28.77Zm0,8c.7,0,1.4,0,2.1,0a.92.92,0,0,0,1-.91.94.94,0,0,0-1-1c-1.4,0-2.8,0-4.2,0a1,1,0,0,0-1,1,1,1,0,0,0,1.08.93Z"/><circle class="cls-4" cx="3.64" cy="4.26" r="2.34"/><circle class="cls-5" cx="2.6" cy="9.54" r="1.3"/><line class="cls-6" x1="5.33" y1="0.09" x2="3.89" y2="3.59"/><line class="cls-7" x1="4.73" y1="49.42" x2="1.02" y2="50.2"/><line class="cls-8" x1="36.36" y1="49.57" x2="39.92" y2="50.83"/><line class="cls-9" x1="34.94" y1="50.26" x2="40.59" y2="52.26"/><polygon class="cls-10" points="2.01 45.47 0.43 48.21 3.59 48.21 2.01 45.47"/></g></g></svg>